<svg xmlns="http://www.w3.org/2000/svg" width="238.8" height="56" viewBox="0 0 238.8 56" role="img" aria-label="timezlab">
  <title>timezlab</title>
  <g transform="translate(4 4)" fill="none" stroke-linecap="round">
    <path d="M24,5 A19,19 0 1,1 5,24" stroke="#22D3EE" stroke-width="2.5"/>
    <path d="M24,11 A13,13 0 1,1 11,24" stroke="#D4D4D8" stroke-width="2.5" transform="rotate(120 24 24)"/>
    <path d="M24,16 A8,8 0 1,1 16,24" stroke="#8B5CF6" stroke-width="2.5" transform="rotate(240 24 24)"/>
  </g>
  <circle cx="28" cy="28" r="3" fill="#8B5CF6"/>
  <g transform="translate(60 39) scale(0.036000 -0.036000)">
    <g fill="#22D3EE">
      <path d="M374.7998046875 0Q288.999267578125 0 247.99908447265625 39.40020751953125Q206.9989013671875 78.8004150390625 206.9989013671875 160.40087890625V659.2003173828125H325.4010009765625V169.201416015625Q325.4010009765625 132.201416015625 343.00103759765625 114.3013916015625Q360.60107421875 96.4013671875 396.401123046875 96.4013671875H528.00048828125V0ZM45.999755859375 437.598876953125V534.000244140625H528.00048828125V437.598876953125Z" transform="translate(0.00 0)"/>
      <path d="M275.7989501953125 0V534.000244140625H394.2010498046875V0ZM71.99951171875 0V96.4013671875H568.00048828125V0ZM81.99951171875 437.598876953125V534.000244140625H377.4000244140625V437.598876953125ZM270.59912109375 605.3995361328125V717.0003662109375H391.401123046875V605.3995361328125Z" transform="translate(600.00 0)"/>
      <path d="M31.99951171875 0V534.000244140625H131.40087890625L135.6009521484375 412.4000244140625L124.40087890625 415.2000732421875Q135.801025390625 479.0003662109375 164.70098876953125 512.5003051757812Q193.6009521484375 546.000244140625 237.600830078125 546.000244140625Q286.200927734375 546.000244140625 309.90081787109375 512.2002563476562Q333.6007080078125 478.4002685546875 340.80078125 410.400146484375H327.6005859375Q337.8006591796875 476.0003662109375 370.30072021484375 511.00030517578125Q402.80078125 546.000244140625 450.80078125 546.000244140625Q511.6005859375 546.000244140625 539.800537109375 503.00030517578125Q568.00048828125 460.0003662109375 568.00048828125 365.600830078125V0H455.19873046875V343.2001953125Q455.19873046875 401.7994384765625 443.99896240234375 423.29901123046875Q432.7991943359375 444.798583984375 408.7996826171875 444.798583984375Q392.5999755859375 444.798583984375 380.2001953125 434.29876708984375Q367.8004150390625 423.7989501953125 360.50054931640625 400.99932861328125Q353.20068359375 378.19970703125 353.20068359375 342.000244140625V0H246.79931640625V343.2001953125Q246.79931640625 399.199462890625 235.8995361328125 421.9990234375Q224.999755859375 444.798583984375 200.000244140625 444.798583984375Q183.4005126953125 444.798583984375 171.000732421875 434.29876708984375Q158.6009521484375 423.7989501953125 151.70111083984375 400.99932861328125Q144.80126953125 378.19970703125 144.80126953125 342.000244140625V0Z" transform="translate(1200.00 0)"/>
      <path d="M305.3997802734375 -12Q230.3997802734375 -12 173.899658203125 22.20001220703125Q117.3995361328125 56.4000244140625 86.09942626953125 119.300048828125Q54.79931640625 182.2000732421875 54.79931640625 267.0001220703125Q54.79931640625 350.60009765625 85.8994140625 413.20013427734375Q116.99951171875 475.8001708984375 172.69964599609375 510.90020751953125Q228.3997802734375 546.000244140625 302.9998779296875 546.000244140625Q375.2000732421875 546.000244140625 430.6002197265625 511.900146484375Q486.0003662109375 477.800048828125 517.4004516601562 414.79998779296875Q548.800537109375 351.7999267578125 548.800537109375 264.800048828125V233.7996826171875H177.201416015625Q182.201416015625 165.6007080078125 216.7010498046875 130.00115966796875Q251.20068359375 94.401611328125 307.39990234375 94.401611328125Q349.79931640625 94.401611328125 378.29901123046875 114.5013427734375Q406.7987060546875 134.60107421875 417.798583984375 167.8006591796875L538.6004638671875 159.2005615234375Q513.6002197265625 79.4000244140625 453.70013427734375 33.70001220703125Q393.800048828125 -12 305.3997802734375 -12ZM178.4014892578125 320.200439453125H421.1983642578125Q415.9984130859375 380.7994384765625 383.798828125 410.19903564453125Q351.5992431640625 439.5986328125 302.1998291015625 439.5986328125Q251.6004638671875 439.5986328125 219.3009033203125 409.299072265625Q187.0013427734375 378.99951171875 178.4014892578125 320.200439453125Z" transform="translate(1800.00 0)"/>
    </g>
    <g fill="#D4D4D8">
      <path d="M73.199462890625 0V105.601318359375L382.7978515625 437.598876953125H83.199462890625V534.000244140625H518.00048828125V428.39892578125L208.402099609375 96.4013671875H526.800537109375V0Z" transform="translate(2400.00 0)"/>
    </g>
    <g fill="#8B5CF6">
      <path d="M254.9989013671875 0V549.598876953125Q254.9989013671875 580.3988037109375 238.39898681640625 596.9987182617188Q221.799072265625 613.5986328125 190.9991455078125 613.5986328125H71.99951171875V710H208.5999755859375Q290.4005126953125 710 331.9007568359375 668.499755859375Q373.4010009765625 626.99951171875 373.4010009765625 545.198974609375V0ZM51.99951171875 0V96.4013671875H548.00048828125V0Z" transform="translate(3000.00 0)"/>
      <path d="M225.999755859375 -12Q176.3997802734375 -12 135.999755859375 6.0Q95.5997314453125 24 71.99969482421875 57.50006103515625Q48.399658203125 91.0001220703125 48.399658203125 136.80029296875Q48.399658203125 204.80029296875 90.8997802734375 242.50030517578125Q133.39990234375 280.2003173828125 213.199462890625 296.80029296875L379.998779296875 332.000244140625Q379.998779296875 388.3995361328125 356.2991943359375 417.59930419921875Q332.599609375 446.799072265625 282.800048828125 446.799072265625Q237.400634765625 446.799072265625 212.4010009765625 425.0992431640625Q187.4013671875 403.3994140625 179.0015869140625 366.5999755859375L55.99951171875 374Q70.99951171875 451.400146484375 130.2996826171875 498.7001953125Q189.599853515625 546.000244140625 281.199951171875 546.000244140625Q390.4007568359375 546.000244140625 444.40081787109375 487.90020751953125Q498.40087890625 429.8001708984375 498.40087890625 326V126.80126953125Q498.40087890625 107.201171875 506.0008544921875 99.8011474609375Q513.600830078125 92.401123046875 528.000732421875 92.401123046875H554.000244140625V0Q548.000244140625 -1 534.4002075195312 -2.300048828125Q520.8001708984375 -3.60009765625 506.800048828125 -3.60009765625Q468.7998046875 -3.60009765625 442.29962158203125 9.4000244140625Q415.7994384765625 22.400146484375 401.99932861328125 48.70025634765625Q388.19921875 75.0003662109375 386.7991943359375 113.600341796875H401.9991455078125Q396.5992431640625 78.000244140625 372.8994140625 49.3001708984375Q349.1995849609375 20.60009765625 311.39971923828125 4.300048828125Q273.599853515625 -12 225.999755859375 -12ZM247.2005615234375 80.401123046875Q290.39990234375 80.401123046875 319.99951171875 95.700927734375Q349.59912109375 111.000732421875 364.7989501953125 139.700439453125Q379.998779296875 168.400146484375 379.998779296875 207.599853515625V243.999267578125L246.800537109375 215.99951171875Q204.4012451171875 207.599609375 187.60150146484375 190.49981689453125Q170.8017578125 173.4000244140625 170.8017578125 144.000244140625Q170.8017578125 114.20068359375 190.701416015625 97.3009033203125Q210.60107421875 80.401123046875 247.2005615234375 80.401123046875Z" transform="translate(3600.00 0)"/>
      <path d="M350.2010498046875 -12Q293.6009521484375 -12 252.40106201171875 14.30010986328125Q211.201171875 40.6002197265625 189.4012451171875 83.2001953125L186.001220703125 0H73.9990234375V710H192.401123046875V458.8001708984375Q212.401123046875 495.400390625 253.60107421875 520.7003173828125Q294.801025390625 546.000244140625 350.2010498046875 546.000244140625Q416.600830078125 546.000244140625 465.6007080078125 512.6002807617188Q514.6005859375 479.2003173828125 541.300537109375 416.80029296875Q568.00048828125 354.4002685546875 568.00048828125 267.0001220703125Q568.00048828125 179.5999755859375 541.300537109375 117.199951171875Q514.6005859375 54.7999267578125 465.6007080078125 21.39996337890625Q416.600830078125 -12 350.2010498046875 -12ZM322.399658203125 94.401611328125Q381.399169921875 94.401611328125 413.0987548828125 139.8011474609375Q444.79833984375 185.20068359375 444.79833984375 267.0001220703125Q444.79833984375 349.3995361328125 413.0987548828125 394.49908447265625Q381.399169921875 439.5986328125 323.599609375 439.5986328125Q283.400146484375 439.5986328125 253.80047607421875 419.49884033203125Q224.2008056640625 399.3990478515625 208.30096435546875 360.79937744140625Q192.401123046875 322.19970703125 192.401123046875 267.0001220703125Q192.401123046875 213.00048828125 208.5009765625 174.30084228515625Q224.600830078125 135.6011962890625 253.70050048828125 115.00140380859375Q282.8001708984375 94.401611328125 322.399658203125 94.401611328125Z" transform="translate(4200.00 0)"/>
    </g>
  </g>
</svg>
